HIERARCHY
ROOT Hips
{
  OFFSET 3.13124 94.3669 -3.18751
  CHANNELS  6 Xposition Yposition Zposition Zrotation Xrotation Yrotation
  JOINT LeftUpLeg
  {
    OFFSET 8.64259 1.95398 -2.38835
    CHANNELS 3 Zrotation Xrotation Yrotation
    JOINT LeftLeg
    {
      OFFSET 43.7702 0 0
      CHANNELS 3 Zrotation Xrotation Yrotation
      JOINT LeftFoot
      {
        OFFSET 40.6238 0 0
        CHANNELS 3 Zrotation Xrotation Yrotation
        JOINT LeftToeBase
        {
          OFFSET 12.7242 0 0
          CHANNELS 3 Zrotation Xrotation Yrotation
          End Site
          {
            OFFSET 0 0 0
          }
        }
      }
    }
  }
  JOINT RightUpLeg
  {
    OFFSET -8.2249 1.95398 -2.59336
    CHANNELS 3 Zrotation Xrotation Yrotation
    JOINT RightLeg
    {
      OFFSET 43.5653 0 0
      CHANNELS 3 Zrotation Xrotation Yrotation
      JOINT RightFoot
      {
        OFFSET 40.6238 0 0
        CHANNELS 3 Zrotation Xrotation Yrotation
        JOINT RightToeBase
        {
          OFFSET 12.7242 0 0
          CHANNELS 3 Zrotation Xrotation Yrotation
          End Site
          {
            OFFSET 0 0 0
          }
        }
      }
    }
  }
  JOINT Spine
  {
    OFFSET 0.165834 0.87714 6.61349
    CHANNELS 3 Zrotation Xrotation Yrotation
    JOINT Spine1
    {
      OFFSET 7.38962 1.71661e-005 0
      CHANNELS 3 Zrotation Xrotation Yrotation
      JOINT Spine2
      {
        OFFSET 11.9445 1.14441e-005 0
        CHANNELS 3 Zrotation Xrotation Yrotation
        JOINT Spine3
        {
          OFFSET 14.7254 4.19617e-005 0
          CHANNELS 3 Zrotation Xrotation Yrotation
          JOINT Spine4
          {
            OFFSET 10.9679 0 0
            CHANNELS 3 Zrotation Xrotation Yrotation
            JOINT RightShoulder
            {
              OFFSET 2.46616 -1.6653 3.69651
              CHANNELS 3 Zrotation Xrotation Yrotation
              JOINT RightArm
              {
                OFFSET 13.0012 0 0
                CHANNELS 3 Zrotation Xrotation Yrotation
                JOINT RightForeArm
                {
                  OFFSET 28.7848 1.52588e-005 0
                  CHANNELS 3 Zrotation Xrotation Yrotation
                  JOINT RightHand
                  {
                    OFFSET 26.5688 1.52588e-005 0
                    CHANNELS 3 Zrotation Xrotation Yrotation
                    End Site
                    {
                      OFFSET 0 0 0
                    }
                  }
                }
              }
            }
            JOINT LeftShoulder
            {
              OFFSET 2.38034 -1.29275 -3.75231
              CHANNELS 3 Zrotation Xrotation Yrotation
              JOINT LeftArm
              {
                OFFSET 16.3182 6.10352e-005 0
                CHANNELS 3 Zrotation Xrotation Yrotation
                JOINT LeftForeArm
                {
                  OFFSET 27.0901 0 0
                  CHANNELS 3 Zrotation Xrotation Yrotation
                  JOINT LeftHand
                  {
                    OFFSET 24.5451 1.52588e-005 0
                    CHANNELS 3 Zrotation Xrotation Yrotation
                    End Site
                    {
                      OFFSET 0 0 0
                    }
                  }
                }
              }
            }
            JOINT Neck
            {
              OFFSET 5.0226 -0.0266342 0
              CHANNELS 3 Zrotation Xrotation Yrotation
              JOINT Head
              {
                OFFSET 6.69363 2.86102e-005 0
                CHANNELS 3 Zrotation Xrotation Yrotation
                End Site
                {
                  OFFSET 0 0 0
                }
              }
            }
          }
        }
      }
    }
  }
}
MOTION
Frames:	13
Frame Time:	0.0333333
-68.1485 83.3015 -69.6004 -40.713 -60.6306 -50.1495 -170.273 44.9317 111.918 -16.5972 -34.3407 -6.9294 24.4376 4.48515 3.60347 28.7808 5.02252e-006 2.6538e-006 -170.596 52.4884 62.6172 -44.3943 29.5017 1.60153 67.6827 45.1158 24.3664 28.7808 1.40943e-005 2.37198e-005 -2.50935 11.0773 -91.1906 4.59554 -4.79396 -3.39315 -7.07046 -4.93857 -3.17872 -29.6136 -3.55365 -4.67635 -9.601 -3.55366 -4.67636 102.98 -16.8654 -80.0285 7.61502 45.9773 -18.9667 -5.52268 1.30101 -14.5039 -5.37983 -0.320002 -0.0162397 -88.2654 -9.39619 67.7532 6.47159 -28.4621 -21.4331 3.38902 36.7557 -4.45961 21.6628 2.0964 5.88855 58.9408 23.47 -20.3647 -31.0736 24.7762 40.6872 
-65.96 82.9286 -68.7466 -39.2192 -62.3331 -47.2423 -170.479 50.3567 112.364 -27.3522 -38.5602 -12.1222 28.0507 7.70849 7.07909 28.7808 5.02252e-006 2.6538e-006 -171.226 50.2625 61.8988 -43.3053 31.1205 1.71539 64.8162 46.6112 26.8124 28.7808 1.40943e-005 2.37198e-005 -2.54677 11.1283 -90.8965 4.48046 -4.27455 -3.54434 -7.18779 -4.4263 -3.35277 -29.7161 -3.01296 -4.664 -9.70339 -3.01294 -4.66401 102.743 -16.7807 -80.6402 5.86963 48.3929 -18.556 -6.52482 1.63082 -16.9245 -5.37983 -0.320002 -0.0162397 -87.499 -10.2183 70.2748 4.93007 -26.706 -17.2677 3.93811 46.0042 -5.01628 18.0369 1.77833 6.04869 57.4092 23.7406 -19.1131 -29.8136 24.5868 40.0058 
-63.6496 82.59 -67.5613 -36.6987 -64.2691 -43.1281 -170.548 54.762 113.005 -37.343 -41.9263 -18.2737 30.4148 10.0184 9.32275 28.7808 5.02252e-006 2.6538e-006 -172.496 47.2051 61.6487 -41.387 33.252 1.88603 62.3578 47.7327 28.9153 28.7808 1.40943e-005 2.37198e-005 -2.59773 11.1352 -90.6138 4.4576 -3.79006 -3.64582 -7.21245 -3.94675 -3.47557 -29.7294 -2.52045 -4.61502 -9.71676 -2.52044 -4.61501 103.109 -15.4325 -79.6347 8.97547 49.1845 -20.7893 -7.34496 2.22027 -21.4398 -5.37983 -0.320002 -0.0162397 -87.1035 -12.5714 72.5419 5.56028 -26.3592 -14.5496 4.79129 55.4874 -5.87705 0.319284 0.214967 7.72259 56.9815 23.4068 -18.9025 -29.8262 24.1709 39.6413 
-61.4834 82.2703 -65.9777 -33.1382 -67.0018 -37.154 -170.643 57.3958 113.611 -45.1615 -41.4711 -23.5034 36.1127 12.7247 11.1154 28.7808 5.02252e-006 2.6538e-006 -174.862 42.3004 62.6605 -38.5203 35.8878 2.12221 59.9748 49.4732 31.4776 28.7808 1.40943e-005 2.37198e-005 -2.49599 11.1735 -90.5073 4.3817 -3.28001 -3.8838 -7.29046 -3.44764 -3.73584 -29.7935 -1.9626 -4.68857 -9.78086 -1.9626 -4.68857 103.613 -15.4675 -78.2879 10.0793 49.3006 -21.829 -6.67272 2.66197 -27.2938 -5.37983 -0.320002 -0.0162397 -86.8565 -15.7033 74.5895 6.67483 -26.3335 -12.4646 6.1441 64.665 -7.2269 -10.2183 -0.455637 1.43539 56.977 22.62 -18.4798 -29.0702 23.7976 38.0014 
-59.2009 81.9117 -63.9249 -27.0629 -70.3689 -28.9907 -171.464 58.4088 112.608 -49.3355 -37.6101 -23.5118 45.5169 14.2574 10.8169 28.7808 5.02252e-006 2.6538e-006 -177.788 35.5968 63.2669 -34.2203 36.9152 2.21558 59.2913 50.9717 32.9223 28.7808 1.40943e-005 2.37198e-005 -2.33007 11.1852 -90.3874 4.3659 -2.77769 -4.02758 -7.30793 -2.95213 -3.90164 -29.8013 -1.44034 -4.67486 -9.78866 -1.44035 -4.67487 103.96 -16.2208 -77.4322 9.51366 48.2293 -21.0427 -4.87812 2.7423 -33.5759 -5.37983 -0.320002 -0.0162397 -86.1808 -17.5989 76.9451 6.37102 -26.332 -12.3973 34.2479 84.8032 -35.3734 -21.4587 1.14697 -11.9807 57.5193 20.3929 -19.9277 -30.2651 22.2245 38.6503 
-57.0929 81.7641 -61.5185 -13.67 -74.909 -13.4261 -172.903 60.0454 110.607 -52.7854 -32.7331 -19.4802 48.8928 15.0486 10.8604 28.7808 5.02252e-006 2.6538e-006 179.252 27.003 63.9407 -30.6483 39.9359 2.48187 56.7682 51.8648 35.157 28.7808 1.40943e-005 2.37198e-005 -2.22557 11.24 -90.2703 4.25692 -2.32485 -4.35485 -7.41887 -2.51409 -4.24856 -29.8993 -0.91033 -4.85102 -9.88663 -0.910326 -4.85104 104.302 -17.4012 -76.6552 7.62745 46.0283 -19.393 -2.37391 2.15983 -39.9139 -5.37983 -0.320002 -0.0162397 -85.7915 -17.3132 77.7551 0.124033 -25.4719 -5.33882 141.488 63.385 -139.859 -21.5774 1.82236 -15.4136 56.3195 18.4126 -20.086 -29.6382 20.6629 38.1063 
-54.6922 81.9266 -58.9389 7.69877 -77.432 9.96816 -173.339 60.1902 106.935 -54.6397 -29.9226 -15.2787 53.3691 15.8208 10.6851 28.7808 5.02252e-006 2.6538e-006 177.657 20.3509 63.9668 -29.9477 42.4355 2.71677 45.0894 51.3197 42.5949 28.7808 1.40943e-005 2.37198e-005 -1.717 11.2833 -90.3158 4.20761 -1.55578 -4.57393 -7.4702 -1.75536 -4.50123 -29.9411 -0.110979 -4.82947 -9.9284 -0.110974 -4.82947 104.929 -19.6326 -75.3335 3.50001 41.8929 -16.9967 0.347119 0.749805 -44.6425 -5.37983 -0.320002 -0.0162397 -85.2223 -16.261 78.7458 -3.94123 -23.7181 -5.9951 138.607 63.3949 -136.931 -24.0577 6.04793 -35.7432 57.639 14.6472 -21.1868 -31.1322 17.6807 37.9855 
-51.899 82.3131 -55.8701 39.8828 -76.922 43.3806 -174.129 58.546 102.163 -55.9715 -27.1694 -11.3548 57.3354 17.3332 11.0296 28.7808 5.02252e-006 2.6538e-006 177.952 15.8306 62.7266 -34.8171 40.9788 2.55346 33.6685 44.7329 44.7016 28.7808 1.40943e-005 2.37198e-005 -1.36245 11.2387 -90.2846 4.32054 -1.0521 -4.75785 -7.3585 -1.26024 -4.70711 -29.8239 0.42465 -4.85404 -9.81119 0.424656 -4.85403 105.458 -22.8201 -74.4761 -0.461871 37.281 -16.7532 2.56628 -0.952605 -47.9704 -5.37983 -0.320002 -0.0162397 -84.9694 -16.4786 79.4282 -9.50339 -21.8165 -1.56961 114.402 57.9787 -112.518 -31.9992 9.98661 -41.194 55.9445 11.3336 -22.5768 -31.3251 14.8565 39.2533 
-48.9418 82.877 -52.7527 61.7464 -73.5887 65.7528 -174.216 55.6542 97.5781 -57.2573 -24.818 -8.60442 61.1377 17.9036 10.7006 28.7808 5.02252e-006 2.6538e-006 178.605 13.1871 61.6914 -39.0849 39.826 2.38597 23.2853 34.3705 41.3092 28.7808 1.40943e-005 2.37198e-005 -0.930535 11.1012 -90.1081 4.63326 -0.373085 -4.78073 -7.04636 -0.582888 -4.75976 -29.5132 1.07934 -4.67245 -9.50056 1.07934 -4.67247 105.526 -25.6833 -74.6811 -4.30099 32.4631 -16.9757 4.41306 -2.62523 -49.846 -5.37983 -0.320002 -0.0162397 -85.1264 -18.7233 79.7673 -12.6737 -19.623 -2.73869 83.2445 64.1196 -85.0861 -32.1265 12.8757 -51.3067 54.1415 8.18173 -23.1243 -31.4725 11.6152 40.2841 
-45.924 83.5803 -49.766 71.8892 -69.928 75.9654 -174.028 52.3629 94.0215 -58.2364 -23.6083 -7.27931 64.9426 17.7119 9.9118 28.7808 5.02252e-006 2.6538e-006 179.685 13.2018 61.9247 -42.4349 24.3941 1.02163 26.6406 31.8277 36.245 28.7808 1.40943e-005 2.37198e-005 -0.412768 10.9015 -89.8922 5.08779 0.504201 -4.74053 -6.59175 0.295308 -4.75808 -29.0665 1.90428 -4.37116 -9.0539 1.90429 -4.37116 105.051 -27.609 -75.918 -7.19037 25.0126 -17.6372 5.9653 -4.42918 -52.8806 -5.37983 -0.320002 -0.0162397 -85.5331 -25.1859 80.7218 -16.8895 -18.1671 7.26904 80.481 37.0077 -85.4833 -53.2463 11.8943 -25.6928 53.3853 7.42179 -19.4419 -30.62 9.4755 37.2078 
-42.8726 84.3235 -46.9 78.4108 -65.1192 81.7362 -174.085 48.6295 90.09 -58.3775 -21.6282 -6.03892 67.914 17.134 9.08703 28.7808 5.02252e-006 2.6538e-006 -179.299 14.0442 63.5658 -45.8652 27.1291 1.20685 36.5918 36.4088 34.892 28.7808 1.40943e-005 2.37198e-005 -0.0311754 10.7728 -89.7504 5.38452 1.08366 -4.559 -6.29411 0.88218 -4.60215 -28.7803 2.40268 -4.02405 -8.76763 2.40268 -4.02404 103.717 -28.3335 -78.7949 -4.88022 20.8448 -21.105 6.83981 -5.73084 -54.259 -5.37983 -0.320002 -0.0162397 -84.8855 -33.0745 83.7823 -25.5239 -10.5619 10.0955 3.75802 -0.0721751 -68.601 -3.68912 -1.90538 55.499 54.9474 8.28271 -12.5875 -29.9046 8.08442 30.0564 
-39.9941 85.1614 -44.174 82.5165 -59.9698 84.7046 -174.286 44.5969 86.6291 -57.8208 -19.3356 -5.0631 70.2404 16.058 8.15146 28.7808 5.02252e-006 2.6538e-006 -177.795 18.1796 64.9546 -49.6837 18.0617 0.559042 52.5068 26.2336 18.9271 28.7808 1.40943e-005 2.37198e-005 0.415707 10.7 -89.5999 5.57748 1.86249 -4.19326 -6.09915 1.67631 -4.27099 -28.6056 3.03595 -3.44096 -8.59295 3.03596 -3.44096 101.101 -30.5233 -84.23 -5.27008 15.7965 -21.2847 6.11109 -6.33012 -58.2731 -5.37983 -0.320002 -0.0162397 -83.7417 -38.4441 86.7204 -24.7236 -10.948 14.6109 18.4384 3.10067 -78.6118 -37.6163 -14.2081 38.8689 57.8096 9.27367 -5.31767 -31.0881 6.01803 22.3966 
-37.5648 85.8558 -41.4445 85.2668 -53.2206 86.1422 -175.131 40.8599 83.1952 -56.8088 -15.7334 -3.19173 71.8054 15.1943 7.4823 28.7808 5.02252e-006 2.6538e-006 -176.581 23.0105 67.1254 -52.8189 18.1109 0.544044 59.4548 10.0669 6.39276 28.7808 1.40943e-005 2.37198e-005 0.855047 10.5597 -89.4847 5.90047 2.61795 -3.87781 -5.77395 2.44491 -3.98908 -28.3012 3.66189 -2.91251 -8.28853 3.66188 -2.91252 98.389 -32.7555 -89.4779 -1.68042 15.4939 -24.6688 5.59113 -5.90361 -58.9742 -5.37983 -0.320002 -0.0162397 -83.0417 -42.5255 88.4206 -22.372 -13.7261 15.0544 18.7905 5.08951 -73.0826 -71.284 2.05576 -8.01177 58.3962 9.8181 2.01116 -31.5157 3.0753 16.1006 
